<svg width="21" height="17" viewBox="0 0 21 17" fill="none" xmlns="http://www.w3.org/2000/svg">
<path d="M9.61235 2.86748L10.4998 3.76677C10.8832 3.42205 11.0075 3.24631 11.5 2.86748C12.2923 2.25803 14 1.5 15 1.5C16.2215 1.5 17.0371 1.99175 17.9008 2.86702C18.7645 3.7423 19.2498 4.92943 19.2498 6.16726C19.2498 9.58643 14 15.5 10.4998 15.5C6.99955 15.5 1.75 9.58689 1.75 6.16772C1.75 4.92989 2.23524 3.74276 3.09897 2.86748C3.96269 1.9922 5.13416 1.50047 6.35566 1.50047C7.57715 1.50047 8.74862 1.9922 9.61235 2.86748Z" fill="#FF3D3D" stroke="#FF3D3D" stroke-width="2" stroke-linecap="round" stroke-linejoin="round"/>
</svg>
