<svg width="21" height="21" viewBox="0 0 21 21" fill="none" xmlns="http://www.w3.org/2000/svg">
<path d="M20.9648 7.9437C20.8986 7.74285 20.7781 7.56643 20.618 7.43584C20.458 7.30525 20.2652 7.2261 20.063 7.20798L14.0966 6.29657L11.4228 0.619444C11.3369 0.433788 11.2028 0.277215 11.0359 0.16766C10.869 0.0581054 10.676 0 10.479 0C10.2821 0 10.0891 0.0581054 9.92216 0.16766C9.75526 0.277215 9.62119 0.433788 9.53533 0.619444L6.86147 6.28559L0.895093 7.20798C0.701026 7.23687 0.518576 7.32214 0.368448 7.45413C0.218319 7.58611 0.106524 7.75953 0.045749 7.95468C-0.00988306 8.1454 -0.0148754 8.34837 0.0313078 8.54183C0.077491 8.73528 0.173106 8.91192 0.307892 9.05277L4.6385 13.4451L3.58993 19.6823C3.55249 19.8882 3.57209 20.1009 3.64641 20.2955C3.72073 20.4901 3.84667 20.6583 4.00935 20.7804C4.16792 20.8991 4.35494 20.9692 4.54942 20.9827C4.7439 20.9963 4.93815 20.9529 5.11036 20.8572L10.479 17.9253L15.8268 20.8682C15.9739 20.9552 16.1401 21.0006 16.3091 21C16.5312 21.0008 16.7479 20.9278 16.9278 20.7914C17.0905 20.6693 17.2164 20.5011 17.2907 20.3065C17.365 20.1119 17.3846 19.8991 17.3472 19.6933L16.2986 13.4561L20.6292 9.06376C20.7806 8.92944 20.8925 8.75289 20.9519 8.55462C21.0113 8.35636 21.0158 8.14452 20.9648 7.9437Z" fill="#FFC11E"/>
</svg>
