<svg xmlns="http://www.w3.org/2000/svg" xmlns:xlink="http://www.w3.org/1999/xlink" viewBox="0 0 908.92 871"><defs><style>.cls-1{fill:none;}.cls-2{clip-path:url(#clip-path);}.cls-3,.cls-32{fill:#fff;}.cls-4{fill:#bbfefe;}.cls-5{fill:#56e8f5;}.cls-6{fill:#00aee7;}.cls-7{fill:#3fceef;}.cls-8{fill:#81e7f7;}.cls-9{fill:#c1eff4;}.cls-10{fill:#f9f9f9;}.cls-11{fill:#e5f8f9;}.cls-12{fill:url(#Безымянный_градиент_17);}.cls-13,.cls-14,.cls-15{fill:#003d60;}.cls-13{opacity:0.11;}.cls-14,.cls-46{opacity:0.17;}.cls-15{opacity:0.2;}.cls-16{fill:#b8ccc6;}.cls-17{fill:#f7f4e7;}.cls-18{fill:#f9e3be;}.cls-19{fill:#fcffee;}.cls-20{fill:#788c8e;}.cls-21{fill:#abc4c6;opacity:0.51;}.cls-22{fill:#567b81;}.cls-23{fill:#336878;}.cls-24{fill:#dce8e6;}.cls-25{fill:#038fa6;}.cls-26{fill:#e0e7e8;}.cls-27{fill:#bbc3c0;}.cls-28{fill:#f2f3f0;}.cls-29{fill:#50514f;}.cls-30{fill:#c9c9c9;}.cls-31{fill:#396a7b;}.cls-32{opacity:0.39;}.cls-33{fill:#dfa467;opacity:0.35;}.cls-34{fill:url(#Безымянный_градиент_45);}.cls-35{fill:url(#Безымянный_градиент_45-2);}.cls-36{fill:url(#Безымянный_градиент_27);}.cls-37{fill:url(#Безымянный_градиент_18);}.cls-38{fill:url(#Безымянный_градиент_6);}.cls-39{fill:url(#Безымянный_градиент_24);}.cls-40{fill:url(#Безымянный_градиент_3);}.cls-41{fill:#4fb0ba;}.cls-42{fill:#85c1c1;}.cls-43{fill:#1a2c43;}.cls-44{fill:url(#Безымянный_градиент_4);}.cls-45{fill:#333;}.cls-46{fill:#468ea5;}.cls-47{fill:#5b5b5b;}.cls-48{fill:#0082bc;}.cls-49{fill:#54e2de;}.cls-50{fill:#034e6b;}.cls-51{fill:#fcfcfc;}.cls-52{opacity:0.02;}</style><clipPath id="clip-path" transform="translate(37.41 -0.4)"><circle class="cls-1" cx="435.51" cy="435.51" r="435.51"/></clipPath><linearGradient id="Безымянный_градиент_17" x1="712.6" y1="605.47" x2="240.59" y2="717.09" gradientUnits="userSpaceOnUse"><stop offset="0" stop-color="#506bc4"/><stop offset="0.13" stop-color="#407fc4"/><stop offset="0.34" stop-color="#299bc4"/><stop offset="0.56" stop-color="#19afc4"/><stop offset="0.78" stop-color="#0fbbc4"/><stop offset="1" stop-color="#0cbfc4"/></linearGradient><linearGradient id="Безымянный_градиент_45" x1="605.11" y1="87.36" x2="805.24" y2="221.83" gradientUnits="userSpaceOnUse"><stop offset="0" stop-color="#fff" stop-opacity="0.8"/><stop offset="1" stop-color="#fff" stop-opacity="0.3"/></linearGradient><linearGradient id="Безымянный_градиент_45-2" x1="563.34" y1="97.56" x2="700.6" y2="195.15" xlink:href="#Безымянный_градиент_45"/><linearGradient id="Безымянный_градиент_27" x1="277.1" y1="350.19" x2="311.25" y2="352.02" gradientTransform="translate(65.08 -18.01) rotate(3.88)" gradientUnits="userSpaceOnUse"><stop offset="0.41" stop-color="#fff"/><stop offset="0.48" stop-color="#eee"/><stop offset="0.58" stop-color="#ccc"/></linearGradient><linearGradient id="Безымянный_градиент_18" x1="56.13" y1="543.64" x2="402.47" y2="567.12" gradientUnits="userSpaceOnUse"><stop offset="0.17" stop-color="#abd9ea"/><stop offset="0.32" stop-color="#c2dfea"/><stop offset="0.57" stop-color="#e4e9e9"/><stop offset="0.71" stop-color="#f1ece9"/></linearGradient><linearGradient id="Безымянный_градиент_6" x1="-37.41" y1="522.06" x2="401.06" y2="522.06" gradientUnits="userSpaceOnUse"><stop offset="0" stop-color="#27606c"/><stop offset="0.61" stop-color="#28616c"/></linearGradient><linearGradient id="Безымянный_градиент_24" x1="215.23" y1="549.65" x2="412.98" y2="549.65" gradientTransform="translate(27.68 -17.61) rotate(3.88)" gradientUnits="userSpaceOnUse"><stop offset="0.18" stop-color="#d0e3e9"/><stop offset="0.46" stop-color="#e4e8e9"/><stop offset="0.71" stop-color="#f1ece9"/></linearGradient><linearGradient id="Безымянный_градиент_3" x1="270.15" y1="551.91" x2="407.93" y2="551.91" gradientTransform="translate(27.68 -17.61) rotate(3.88)" gradientUnits="userSpaceOnUse"><stop offset="0" stop-color="#cd2d06"/><stop offset="1" stop-color="#dc4b24"/></linearGradient><linearGradient id="Безымянный_градиент_4" x1="219.04" y1="532.35" x2="350.45" y2="532.35" gradientUnits="userSpaceOnUse"><stop offset="0" stop-color="#666"/><stop offset="0.26" stop-color="#636363"/><stop offset="0.47" stop-color="#585858"/><stop offset="0.61" stop-color="#4d4d4d"/></linearGradient></defs><g id="Слой_2" data-name="Слой 2"><g id="Слой_1-2" data-name="Слой 1"><g class="cls-2"><path class="cls-3" d="M871,435.9c0,1.21,0,2.41,0,3.63q-.18,22-2.5,43.44s0,.07,0,.11A432.41,432.41,0,0,1,836,607.22q-4,9.45-8.52,18.66-5.55,11.45-11.75,22.51-4.14,7.4-8.57,14.62l-20.77-3.86-39.06-7.27L752,673.4l17.94,7C680.56,789.71,544.64,859.48,392.41,859.48a489.5,489.5,0,0,1-86.27-7.62A436,436,0,0,1,126,742.29q-12.73-12.87-24.39-26.77a435.2,435.2,0,0,1-58.1-89.64q-4.47-9.21-8.52-18.66c-.24-.56-.48-1.12-.71-1.68-.95-2.23-1.88-4.49-2.79-6.75Q25,582.71,19.79,566q-1.35-4.28-2.6-8.59A433.09,433.09,0,0,1,2.55,483.08a.22.22,0,0,1,0-.11c-.14-1.31-.28-2.62-.41-3.94Q0,457.75,0,435.9a437.82,437.82,0,0,1,6.8-77.07A432.1,432.1,0,0,1,49.19,234.68a435.69,435.69,0,0,1,772.63,0q1.27,2.43,2.51,4.87A431.47,431.47,0,0,1,864.2,358.83,436.87,436.87,0,0,1,871,435.9Z" transform="translate(37.41 -0.4)"/><path class="cls-4" d="M871,435.9c0,1.21,0,2.41,0,3.63a433.28,433.28,0,0,1-43.52,186.35H43.53A433.52,433.52,0,0,1,0,435.9C0,195.38,195,.4,435.51.4c169.88,0,317,97.27,388.82,239.15A433.15,433.15,0,0,1,871,435.9Z" transform="translate(37.41 -0.4)"/><path class="cls-5" d="M760.59,412.77c0,.92,0,1.83,0,2.76A329,329,0,0,1,727.53,557H132.2a328.68,328.68,0,0,1-13.38-31.65q-3.63-10-6.62-20.35a333.28,333.28,0,0,1-8-150.09c27.34-155.08,162.75-272.9,325.68-272.9,129,0,240.77,73.87,295.27,181.61a329.08,329.08,0,0,1,35.45,149.11Z" transform="translate(37.41 -0.4)"/><path class="cls-6" d="M725,110.54H146a435.5,435.5,0,0,1,579,0Z" transform="translate(37.41 -0.4)"/><path class="cls-7" d="M821.82,234.68H49.19A436.91,436.91,0,0,1,146,110.54H725A436.67,436.67,0,0,1,821.82,234.68Z" transform="translate(37.41 -0.4)"/><path class="cls-8" d="M864.2,358.83H6.81A432.1,432.1,0,0,1,49.19,234.68H821.82q1.27,2.43,2.51,4.87A431.47,431.47,0,0,1,864.2,358.83Z" transform="translate(37.41 -0.4)"/><path class="cls-9" d="M871.51,444.32c0,1.34,0,2.67,0,4q-.18,24.42-2.5,48.23H3c-.14-1.45-.28-2.9-.41-4.37Q.52,468.57.51,444.32a538.38,538.38,0,0,1,6.8-85.58H864.7A537.21,537.21,0,0,1,871.51,444.32Z" transform="translate(37.41 -0.4)"/><path class="cls-10" d="M868.49,501.19a322.78,322.78,0,0,1-14.66,63.48A333.49,333.49,0,0,1,836,607.22H35q-1.78-3.57-3.5-7.2Q25,586.28,19.79,572c-.9-2.44-1.77-4.88-2.6-7.34A322.74,322.74,0,0,1,2.55,501.19Z" transform="translate(37.41 -0.4)"/><path class="cls-11" d="M166.25,559.12H132.2a225.6,225.6,0,0,1-13.38-24.27A190.59,190.59,0,0,0,113.11,566H19.79c-.9-2.19-1.77-4.38-2.6-6.59A265.33,265.33,0,0,1,2.12,499.29a234.56,234.56,0,0,1,25.61-43.48c22.71-30.23,50.31-49.64,76.46-51.7a55.9,55.9,0,0,1,13.57.55c23.64,3.93,40.7,23.1,49.35,51.15q1.38,4.49,2.47,9.25C175.64,491.49,175,524.32,166.25,559.12Z" transform="translate(37.41 -0.4)"/><path class="cls-11" d="M457.7,578.72H293.46c13.83-34.07,31.21-62.13,49.76-81,19.44-19.74,40.15-29.36,59.38-25.2,12.69,2.74,23.49,11.22,32.1,24.14C447.41,515.74,455.38,544.46,457.7,578.72Z" transform="translate(37.41 -0.4)"/><path class="cls-11" d="M605.68,602.31H425.36c-1.24-29.59.71-57.46,5.32-82,10.51-56.2,34.89-95.2,66.72-98.34,31-3.06,61.7,28.61,83,79.26C592.36,529.79,601.35,564.43,605.68,602.31Z" transform="translate(37.41 -0.4)"/><path class="cls-11" d="M699.13,581.15H533.42c5.59-45,19.44-81.34,38.82-101.12,9.14-9.34,19.51-15,30.82-16.11C641.21,460.15,678.93,509,699.13,581.15Z" transform="translate(37.41 -0.4)"/><path class="cls-11" d="M300.29,567.9H172.92a328.68,328.68,0,0,1-13.38-31.65c9.48-45.23,28.13-79.35,50.76-91a37.22,37.22,0,0,1,17.17-4.34c16.81,0,32.33,12.15,44.81,32.65C286.18,496.41,296.32,529.59,300.29,567.9Z" transform="translate(37.41 -0.4)"/><path class="cls-12" d="M853.83,557.4a432.36,432.36,0,0,1-38.1,91q-4.14,7.4-8.57,14.62l-59.83-11.13L752,673.4l38.37,15c-78.94,110.78-208.47,183-354.87,183a435.71,435.71,0,0,1-418.32-314Z" transform="translate(37.41 -0.4)"/><polygon class="cls-13" points="518.32 565.08 480.4 565.22 471.15 565.25 507.24 562.1 518.32 565.08"/><polygon class="cls-14" points="681 656.43 634.8 735.8 593.7 645.37 481.35 574.47 465.61 574.15 440.84 582.17 397.51 582.43 374.11 584.87 360.81 586.25 353.6 584.95 337.04 581.96 276.79 571.09 224.17 577.59 147.67 566.38 471.15 565.25 480.4 565.22 518.32 565.08 530.17 568.28 679.59 608.52 681 656.43"/><polygon class="cls-15" points="473.42 560.57 599.84 639.37 640.94 729.79 687.14 650.42 685.73 602.52 513.38 556.1 473.42 560.57"/><path class="cls-16" d="M798,620.81q-9.54,15.32-20.15,29.85-7.93,10.86-16.44,21.25C672,781.22,536.06,851,383.83,851a489.5,489.5,0,0,1-86.27-7.62A436,436,0,0,1,117.44,733.8C267.72,690,516.06,809.73,591.62,721.12c41.93-49.17-21.44-143.38,24.49-171.26C664.35,520.58,761.11,557.52,798,620.81Z" transform="translate(37.41 -0.4)"/><path class="cls-17" d="M806.54,629.3q-9.54,15.32-20.15,29.85Q778.46,670,770,680.4C680.56,789.71,544.64,859.48,392.41,859.48a489.5,489.5,0,0,1-86.27-7.62A436,436,0,0,1,126,742.29c150.28-43.83,392.41,71.22,468-17.39,41.93-49.17-15.23-138.67,30.7-166.55C672.93,529.07,769.69,566,806.54,629.3Z" transform="translate(37.41 -0.4)"/><path class="cls-18" d="M805.46,665.78c-76.87,123.45-213.81,205.62-370,205.62a433.51,433.51,0,0,1-262.94-88.31c-2-1.48-3.89-3-5.82-4.49l-.09-.07.74-.35C300,714.11,525.25,813.73,598,728.4c30.72-36,13.72-81,29.24-109.7A42.28,42.28,0,0,1,643,602.4C686.1,576.24,772.54,609.24,805.46,665.78Z" transform="translate(37.41 -0.4)"/><polygon class="cls-14" points="546.97 564.98 530.17 568.28 518.32 565.08 546.97 564.98"/><polygon class="cls-19" points="464.4 557.11 577.16 562.1 654.83 611.59 669 635.4 629.32 618.11 563.98 585.51 510.4 573.47 466.95 562.21 464.4 557.11"/><path class="cls-11" d="M381.13,557.05c0,2.24,0,4.45-.13,6.65H251.52c-.09-2.2-.13-4.41-.13-6.65,0-24,4.87-46.16,13.1-63.94,11.83-25.63,30.62-42.18,51.77-42.18,23.79,0,44.58,20.94,55.87,52.16A159.73,159.73,0,0,1,381.13,557.05Z" transform="translate(37.41 -0.4)"/><polygon class="cls-20" points="552.95 566.63 486.38 565.82 153.65 561.77 230.15 522.85 282.77 545.41 343.02 507.67 359.58 497.3 366.79 492.78 380.09 497.59 403.49 506.05 446.82 506.94 471.59 534.79 502.98 532.58 552.95 566.63"/><polygon class="cls-21" points="552.95 566.63 491.02 555.67 442.04 514.74 400.84 523.43 354 500.79 366.79 492.78 380.09 497.59 403.49 506.05 446.82 506.94 471.59 534.79 502.98 532.58 552.95 566.63"/><path class="cls-22" d="M871,435.9c0,1.21,0,2.41,0,3.63a433.28,433.28,0,0,1-55.27,208.86q-4.14,7.4-8.57,14.62l-59.83-11.13L652.61,634l-29.32-5.54-.28-.05-92-50-88-12.78L568,534.4l62-99,43.25-38.1,22.47-19.79L756,324.4l9.61-103.83.39-4.17,84,85.64A435.18,435.18,0,0,1,871,435.9Z" transform="translate(37.41 -0.4)"/><path class="cls-23" d="M871,435.9c0,1.21,0,2.41,0,3.63a433.28,433.28,0,0,1-55.27,208.86q-4.14,7.4-8.57,14.62l-59.83-11.13L717,512.4l35-103,62-67L765.62,220.57,758,201.4l66.32,38.15A433.15,433.15,0,0,1,871,435.9Z" transform="translate(37.41 -0.4)"/><polyline class="cls-24" points="539.7 80.39 542.35 81.58 549.86 77.54 541.14 75.39 539.79 80.06"/><polygon class="cls-25" points="555.26 57.01 560.09 59.54 550.91 77.84 536.76 66.89 555.26 57.01"/><path class="cls-26" d="M448.22,54l.93,7.5a20.13,20.13,0,0,1-.18,6.1l-.82,4.48,3.65,2.19,8-8.88,6.48-2.7Z" transform="translate(37.41 -0.4)"/><path class="cls-3" d="M515.69,77.57l-.54,1.86-23.37-4.67a39.73,39.73,0,0,1-8.22-2.62L454.93,59.4,423.43,43a32.36,32.36,0,0,1-9.26-7.22l-.2-.23,0,0-4.14-4.75a1.31,1.31,0,0,1,.85-2.16l6.42-.66a15.88,15.88,0,0,1,8.73,1.59l72.21,36c.93.46,1.84,1,2.73,1.49Z" transform="translate(37.41 -0.4)"/><line class="cls-1" x1="552.56" y1="79.03" x2="553.28" y2="76.53"/><g id="Движок"><path class="cls-27" d="M462.83,64h0c-.7,1.36-4.52.85-8.56-1.14-.63-.31-1.23-.65-1.79-1-.21-.12-.41-.25-.6-.38a3,3,0,0,1-.31-2.67v0c.37-1.29,1.26-2.2,2.08-2.18l.61.21a22.1,22.1,0,0,1,2.48,1C460.77,59.93,463.5,62.66,462.83,64Z" transform="translate(37.41 -0.4)"/><path class="cls-28" d="M462.83,64h0A20.84,20.84,0,0,1,456,61.76a23.59,23.59,0,0,1-4.43-2.89v0c.37-1.29,1.26-2.2,2.08-2.18l.61.21a22.1,22.1,0,0,1,2.48,1C460.77,59.93,463.5,62.66,462.83,64Z" transform="translate(37.41 -0.4)"/><path class="cls-29" d="M454.77,59.77c-.4,1.41-1.42,2.36-2.3,2.15h-.05a1.08,1.08,0,0,1-.55-.37,3,3,0,0,1-.31-2.69c.37-1.29,1.26-2.2,2.08-2.18a1.17,1.17,0,0,1,.27,0,1.09,1.09,0,0,1,.34.17A2.72,2.72,0,0,1,454.77,59.77Z" transform="translate(37.41 -0.4)"/></g><polygon class="cls-24" points="546.55 72.67 552.07 76.54 569.84 72.24 566.29 70.44 546.55 72.67"/><path class="cls-26" d="M453,51.57l18.89,8.64,7.31-4a28.12,28.12,0,0,1,5.92-2.39l24.22-6.68,6.56-6.94-2-.59-6.24,4.62Z" transform="translate(37.41 -0.4)"/><path class="cls-30" d="M515.69,77.57l-.54,1.86-23.37-4.67a39.73,39.73,0,0,1-8.22-2.62L454.93,59.4,423.43,43a32.36,32.36,0,0,1-9.26-7.22l3.08.64a40.73,40.73,0,0,1,9.55,3.29l21.75,10.68L481.6,66.29l2.6.75a28.86,28.86,0,0,0,14.06.47l2.47-.53Z" transform="translate(37.41 -0.4)"/><g id="Движок-2" data-name="Движок"><path class="cls-27" d="M476.4,53.54h0c-.84,1.65-5.49,1-10.4-1.39-.77-.38-1.5-.78-2.18-1.2l-.73-.46a3.65,3.65,0,0,1-.38-3.25v0c.45-1.56,1.53-2.66,2.53-2.64.24.07.48.16.73.25a28.8,28.8,0,0,1,3,1.27C473.91,48.53,477.22,51.86,476.4,53.54Z" transform="translate(37.41 -0.4)"/><path class="cls-28" d="M476.4,53.54h0a25.51,25.51,0,0,1-8.3-2.78,29.24,29.24,0,0,1-5.39-3.52v0c.45-1.56,1.53-2.66,2.53-2.64.24.07.48.16.73.25a28.8,28.8,0,0,1,3,1.27C473.91,48.53,477.22,51.86,476.4,53.54Z" transform="translate(37.41 -0.4)"/><path class="cls-29" d="M466.61,48.35c-.49,1.71-1.73,2.86-2.8,2.61l-.06,0a1.36,1.36,0,0,1-.67-.44,3.68,3.68,0,0,1-.37-3.28c.45-1.56,1.53-2.66,2.53-2.64a1.26,1.26,0,0,1,.33.05,1.08,1.08,0,0,1,.4.2C466.75,45.39,467,46.84,466.61,48.35Z" transform="translate(37.41 -0.4)"/></g><g id="Движок-3" data-name="Движок"><path class="cls-27" d="M484.85,50.44h0c-.7,1.36-4.52.85-8.56-1.14a20.26,20.26,0,0,1-1.79-1l-.6-.37a3,3,0,0,1-.32-2.68v0c.37-1.29,1.26-2.19,2.08-2.18l.61.21a22.91,22.91,0,0,1,2.48,1C482.8,46.33,485.53,49.07,484.85,50.44Z" transform="translate(37.41 -0.4)"/><path class="cls-28" d="M484.85,50.44h0A20.61,20.61,0,0,1,478,48.16a24,24,0,0,1-4.44-2.89v0c.37-1.29,1.26-2.19,2.08-2.18l.61.21a22.91,22.91,0,0,1,2.48,1C482.8,46.33,485.53,49.07,484.85,50.44Z" transform="translate(37.41 -0.4)"/><path class="cls-29" d="M476.8,46.17c-.4,1.41-1.42,2.36-2.3,2.15h-.05a1.13,1.13,0,0,1-.55-.36,3,3,0,0,1-.31-2.7c.37-1.29,1.26-2.19,2.08-2.18l.27,0a1.09,1.09,0,0,1,.34.17A2.72,2.72,0,0,1,476.8,46.17Z" transform="translate(37.41 -0.4)"/></g><polygon class="cls-31" points="733.14 377.11 710.67 482.1 710.67 396.9 733.14 377.11"/><polygon class="cls-32" points="618.03 513.86 673.54 439.31 758.24 355 667.42 435 618.03 513.86"/><polygon class="cls-32" points="784.74 651.48 759.85 512.8 789.42 409 754.42 512 784.74 651.48"/><polygon class="cls-32" points="830.07 288.25 851.42 342 815.24 381.09 874.42 345.42 830.07 288.25"/><path class="cls-33" d="M652.61,634c-4.76,3.11-13.59,6.57-19.88,15.7-10.85,15.73.31,27.27-7.94,56.13-1.91,6.69-6,20.43-17.58,33.45-2.45,2.76-11.36,12.37-28.91,20.41-14.71,6.73-25.08,7.6-56.69,10.77-63.63,6.37-72.17,9.79-83.91,8.78-22.54-1.93-17-8.32-39.68-8.78-12.25-.25-24.61.77-49.32,2.83-22.95,1.91-14.85-4.31-23.79-4-25.6,1-44.43-2.44-54-4-37.91-6-80.22,11.79-98.32,17.75-2-1.48-3.89-3-5.82-4.49l.65-.42C300,714.11,525.25,813.73,598,728.4c27.43-32.18,16.81-71.45,25.28-99.95Z" transform="translate(37.41 -0.4)"/><path class="cls-33" d="M273.35,797.09c0,4-5.14,7.23-11.48,7.23s-11.48-3.24-11.48-7.23Z" transform="translate(37.41 -0.4)"/><path class="cls-33" d="M387.87,839c0,4-5.14,7.23-11.48,7.23S364.91,843,364.91,839Z" transform="translate(37.41 -0.4)"/><path class="cls-33" d="M410.83,793.47c0,4-5.14,7.23-11.48,7.23s-11.48-3.24-11.48-7.23Z" transform="translate(37.41 -0.4)"/><path class="cls-33" d="M452.83,826.57c0,4-5.14,7.23-11.48,7.23s-11.48-3.24-11.48-7.23Z" transform="translate(37.41 -0.4)"/><path class="cls-33" d="M665,669c0,4-5.14,7.23-11.48,7.23S642,673,642,669Z" transform="translate(37.41 -0.4)"/><path class="cls-33" d="M623,769.31c0,4-5.14,7.23-11.48,7.23s-11.48-3.24-11.48-7.23Z" transform="translate(37.41 -0.4)"/><path class="cls-33" d="M750.6,714.4c0,4-5.14,7.23-11.48,7.23s-11.48-3.24-11.48-7.23Z" transform="translate(37.41 -0.4)"/><path class="cls-33" d="M563.51,823c0,4-5.14,7.23-11.48,7.23S540.55,827,540.55,823Z" transform="translate(37.41 -0.4)"/><polygon class="cls-34" points="809.49 209.23 568.14 77.97 571.53 75.09 809.49 209.23"/><polygon class="cls-35" points="537.8 89.76 703.95 183.62 535.53 91.69 537.8 89.76"/><line class="cls-1" x1="537.8" y1="89.76" x2="535.53" y2="91.69"/><line class="cls-1" x1="247.8" y1="595.63" x2="238.78" y2="595.63"/><path class="cls-1" d="M201.47,515.37l-.21,2.7c-5-.84-8.55-1.4-9.81-1.58l-.93-.07,6.15-1.42Z" transform="translate(37.41 -0.4)"/><path class="cls-1" d="M220.13,516.81l-.34,4.38-3.74-.63.31-4Z" transform="translate(37.41 -0.4)"/><path class="cls-1" d="M276.06,521.55l-.71,9.13-3.74-.64.71-9.2L274,521Z" transform="translate(37.41 -0.4)"/><path class="cls-1" d="M294.43,526.65l-.57,7.36-3.73-.76.59-7.63Z" transform="translate(37.41 -0.4)"/><polygon class="cls-36" points="313.27 522.91 345.64 180.18 355.78 181.4 322.59 523.81 313.27 522.91"/><path class="cls-37" d="M401.07,585.93v0l-.74,12.71-46.83,1.61L246.5,604l-115-2.87-2.28-3.23a2.22,2.22,0,0,0,1.49-.11c-20-17-58.36-83.71-68.49-101.7-1.61-2.86-2.51-4.49-2.51-4.49l60.93,26.83,11.3,4.46,2.1.93c1.25-.84,1.78,1,2.9.21,0,0-13.92-4.72-13.89-4.75C111.58,510.72,84.11,499,76,495.9l-.08,0-.09,0a.51.51,0,0,1-.15-.07l-.12,0-.06,0a.18.18,0,0,1-.1,0l168.8,39.76h.06l1.1.27c6.45,1.83,12.75,3.64,18.73,5.36l1.09.32c22.71,6.53,40.84,11.9,46.26,13.82,5.08,1.8,13.35,5.19,22.45,9,3,1.28,6.12,2.62,9.22,4l7,3,2.28,1c1.9.83,3.77,1.64,5.58,2.45l5.26,2.32c.67.31,1.34.6,2,.88l6.36,2.84c.34.14.66.29,1,.44l3.18,1.43c.26.1.52.23.77.34.47.21.92.42,1.33.59l.26.12.48.22,2.61,1.17,19.8.88Z" transform="translate(37.41 -0.4)"/><path class="cls-38" d="M399.59,585.45h0l-19.67-6.34L364,574l-.12,0-8.61-4.26-.18-.08-2.86-1.41-3.07-1.5-6.65-3.2-1.85-.86c-3.25-1.55-6.44-3-9.46-4.41l-1.56-.7h0l-2.35-1c-1.63-.73-3.17-1.39-4.62-2-.33-.12-.67-.27-1-.41-.52-.2-1-.41-1.49-.61s-.83-.31-1.23-.48c-1.81-.7-3.37-1.27-4.64-1.65l-2.37-.72-.81-.27-.08,0-1.15-.37-3.38-1.09-1.48-.48-14.81-4.94-9.07-3-.13,0-2.21-.74-6.76-2.23c-1-.34-2-.68-3.06-1l-2.91-1-1.06-.34-3.94-1.28h-.05c-3.6-1.16-7.17-2.29-10.66-3.36l-3.46-1-2.62-.79c-.86-.28-1.72-.53-2.56-.76q-.75-.24-1.5-.45c-1.27-.38-2.51-.74-3.73-1.08l-4.23-1.17-2.14-.57c-.08,0-.19,0-.29-.07l-3.18-.83-1.44-.38c-.74-.18-1.51-.4-2.32-.61l-1.4-.37c-.34-.09-.69-.17-1.05-.28l-2.75-.72c-.86-.21-1.76-.45-2.67-.69l-3.67-1h0c-.22,0-.44-.11-.65-.17-1.2-.31-2.41-.62-3.67-1-40.82-10.73-112-29.4-124.4-32C67.25,483.3-23,459.34-23,459.34l-14.42-1.16,12.35,9.95S20.22,480.54,39.15,487c5.84,2,14.08,5.28,23,9L119.79,519l34.34,13.68c-2.51-1.39-5.79-3.19-9.46-5.19l-.95-.51c-9.21-5-20.62-11-28.72-14.72l-1.92-.87-1.5-.66c-.27-.1-.53-.23-.81-.34l-2.21-1-.77-.32c-2-.87-4.22-1.8-6.55-2.77l-2.16-.91-1.8-.75c-.43-.18-.87-.37-1.31-.54-.2-.09-.4-.18-.6-.25-.41-.18-.81-.35-1.22-.51C89,501.22,83.59,499,78.58,497L76,495.9l-.08,0-.09,0a.51.51,0,0,1-.15-.07l-.12,0-.06,0a.18.18,0,0,1-.1,0l-6.15-2.5-1.39-.56-1.33-.55-1.26-.51-1.18-.48-1.39-.56c-.88-.35-1.66-.66-2.32-.94-.31-.11-.6-.23-.86-.34l-1.4-.57-.16,0-.16-.08a1.64,1.64,0,0,1,.25.06l.36.07,1,.23L60,489l2.48.53.67.14c.29.06.6.12.91.2l1,.2,2.85.61.57.12,1,.22c.2,0,.4.09.61.13l.63.13c.39.09.79.18,1.2.25l3,.64c.39.09.78.18,1.18.25l5.45,1.17,1.29.28c1.56.32,3.15.67,4.77,1l1.62.34.12,0c.5.12,1,.21,1.52.33l.49.1,2.25.48,4.53,1c.55.12,1.1.25,1.65.35l6.56,1.42,1.62.35c5.37,1.16,10.51,2.27,15,3.27l1.33.29,2.4.54,5.14,1.13,4,.91c7.24,1.69,41,11,77.11,21.14l1.07.31c1.49.41,3.28.92,5.27,1.49,8.73,2.44,17.52,4.93,26,7.37,6.45,1.83,12.75,3.64,18.73,5.36l1.09.32c22.71,6.53,40.84,11.9,46.26,13.82,5.08,1.8,13.35,5.19,22.45,9,3,1.28,6.12,2.62,9.22,4l7,3,2.28,1c1.89.84,3.76,1.65,5.58,2.45l5.26,2.32c.67.31,1.34.6,2,.88l6.36,2.84c.34.14.66.29,1,.44l3.18,1.43c.26.1.52.23.77.34.47.21.92.42,1.33.59l.26.12.48.22,2.61,1.17,19.8.88h.07ZM5.54,472.74a2.31,2.31,0,1,1,2.3-2.31A2.3,2.3,0,0,1,5.54,472.74Zm6.59,1.88a2.31,2.31,0,1,1,2.31-2.31A2.3,2.3,0,0,1,12.13,474.62Zm6.38,1.91a2.31,2.31,0,1,1,2.3-2.3A2.3,2.3,0,0,1,18.51,476.53Zm6.73,1.85a2.31,2.31,0,1,1,2.31-2.3A2.3,2.3,0,0,1,25.24,478.38Z" transform="translate(37.41 -0.4)"/><path class="cls-39" d="M399.59,585.45h0L379.9,579.1,364,574l-.12,0c-3.59-1.79-7.55-3.75-11.64-5.75l-3.08-1.49-6.65-3.2-1.84-.88c-3.26-1.53-6.45-3-9.47-4.39l-1.56-.71h0l-2.35-1c-1.63-.72-3.17-1.39-4.62-2l-1-.41-1.49-.61L319,553c-1.81-.7-3.37-1.26-4.64-1.64-5-1.51-13.73-4.44-24.08-7.9l-9.19-3.07c-6.46-2.15-13.27-4.39-20-6.54-8.6-2.76-17.08-5.38-24.54-7.49l-4.23-1.17-2.14-.57-.29-.08c-3.07-.79-7.19-1.88-12.14-3.18l-2.67-.71-3.67-1h0l-.65-.17-3.67-1,4.82.4,8,.63c5.14.78,54.73,10.22,74.73,14h.08l8.22,1.58s25.66,5.75,46.62,11.29l1,.26.37.1.87.23,3.52,1c.31.08.62.16.93.26a154.08,154.08,0,0,1,17.44,5.61c13,5.78,22,11.7,23.86,16.11,1.39,3.33,2.75,10.75,3.33,14.17C400.91,585,400.27,585.67,399.59,585.45Z" transform="translate(37.41 -0.4)"/><path class="cls-40" d="M395.84,578.13l-19.49-3.26s-5.54-8.54-18.35-12.54c-8.07-2.53-48.28-13.91-76.95-22-6.47-2.15-13.27-4.39-20-6.54,26.53,5,98.89,18.71,109,22.52,12.41,4.69,23.36,9.54,25.27,14A10.77,10.77,0,0,1,395.84,578.13Z" transform="translate(37.41 -0.4)"/><path class="cls-1" d="M228.34,518.32l-.16,2.7c-4.27-.79-7.28-1.32-8.35-1.49l-.79-.06,5.21-1.48Z" transform="translate(37.41 -0.4)"/><path class="cls-1" d="M244.2,519.58,244,524l-3.19-.59.24-4Z" transform="translate(37.41 -0.4)"/><path class="cls-1" d="M260.06,520.85l-.35,6.09-3.18-.6.33-5.75Z" transform="translate(37.41 -0.4)"/><path class="cls-1" d="M275.93,522.11l-.45,7.82-3.19-.61.43-7.46Z" transform="translate(37.41 -0.4)"/><path class="cls-1" d="M291.77,523.8l-.53,9.13-3.18-.61.53-9.2,1.4.12Z" transform="translate(37.41 -0.4)"/><path class="cls-1" d="M307.42,528.72l-.42,7.37-3.18-.73.44-7.64Z" transform="translate(37.41 -0.4)"/><path class="cls-1" d="M349.47,546.44c-10-2.64-21.08-5.34-29.92-7.44l.36-6.35,23.91,7.52,5.5,6.22.14,0Z" transform="translate(37.41 -0.4)"/><path class="cls-1" d="M349.46,546.43l-.14,0-5.5-6.22,5,5.55Z" transform="translate(37.41 -0.4)"/><path class="cls-3" d="M358.29,548.84l-2.15-.59c-.31-.1-.62-.18-.93-.26-1.16-.33-2.34-.64-3.52-1l-.87-.23-.37-.1-1-.27-.14,0-5.5-6.22-23.91-7.52-12.49-3.93-3.16-1-12.49-3.92-1.78-.56L224.25,518,219,519.47l-7.17-.57,6.17-3,1.49-.73,72.63,5.79L304.42,525l3.16,1,12.47,4.17,31.13,10.38.4.13Z" transform="translate(37.41 -0.4)"/><path class="cls-41" d="M244.21,535.42,75.41,495.66l-6.15-2.5-1.39-.56-1.33-.55-1.26-.51-1.18-.48-1.39-.56c-.88-.35-1.66-.66-2.32-.94-.31-.11-.6-.23-.86-.34l-1.4-.57-.16,0-.16-.08a1.64,1.64,0,0,1,.25.06l.36.07,1,.23L60,489l2.48.53.67.14c.29.06.6.12.91.2l1,.2,2.85.61.57.12,1,.22.61.13.63.13c.39.09.79.18,1.2.25l3,.64c.39.08.78.18,1.18.25l5.45,1.17,1.29.28c1.56.32,3.15.67,4.77,1l1.62.34.12,0c.5.12,1,.21,1.52.33l.49.1,2.25.48,4.53,1c.55.12,1.1.25,1.65.35l6.56,1.42,1.62.35c5.37,1.16,10.51,2.27,15,3.27l1.33.29,2.4.54,5.14,1.13,4,.91c7.24,1.69,41,11,77.11,21.14l1.07.31c1.49.41,3.28.92,5.27,1.49Z" transform="translate(37.41 -0.4)"/><path class="cls-42" d="M126.75,503.35l-2.4-.54C125.17,503,126,503.16,126.75,503.35Z" transform="translate(37.41 -0.4)"/><path class="cls-42" d="M131.89,504.48l-5.14-1.13C128.63,503.75,130.36,504.14,131.89,504.48Z" transform="translate(37.41 -0.4)"/><polygon class="cls-43" points="392.51 569.18 437.06 577.8 438.57 585.59 401.31 573.62 392.51 569.18"/><path class="cls-44" d="M350.45,546.7l-1-.26c-21-5.54-46.62-11.29-46.62-11.29l-8.22-1.58h-.08c-20-3.81-69.59-13.25-74.73-14l-.79-.06,5.21-1.48L290,523.24l1.78.56,12.49,3.92,3.16,1,12.49,3.93,23.91,7.52,5.5,6.22.14,0Z" transform="translate(37.41 -0.4)"/><path class="cls-45" d="M241,519.33l-.24,4c-4.79-.91-9.11-1.71-12.58-2.35l.16-2.7Z" transform="translate(37.41 -0.4)"/><path class="cls-45" d="M256.86,520.59l-.33,5.75L244,524l.25-4.38Z" transform="translate(37.41 -0.4)"/><path class="cls-45" d="M272.72,521.86l-.43,7.46-12.58-2.38.35-6.09Z" transform="translate(37.41 -0.4)"/><path class="cls-45" d="M288.59,523.12l-.53,9.2-12.58-2.39.45-7.82Z" transform="translate(37.41 -0.4)"/><path class="cls-45" d="M304.26,527.72l-.44,7.64-1-.21-8.22-1.58h-.08l-3.32-.63.53-9.13Z" transform="translate(37.41 -0.4)"/><path class="cls-45" d="M319.91,532.65l-.36,6.35c-5.17-1.21-9.57-2.23-12.55-2.91l.42-7.37Z" transform="translate(37.41 -0.4)"/><path class="cls-41" d="M165.39,580.15S176,560,183.09,558s45.79,5.64,45.79,5.64-40.3-5.48-44.53-3.34C179.12,562.92,165.39,580.15,165.39,580.15Z" transform="translate(37.41 -0.4)"/><ellipse class="cls-43" cx="207.62" cy="541.83" rx="1.49" ry="4.16" transform="translate(-312.12 703.5) rotate(-85.25)"/><ellipse class="cls-43" cx="233.22" cy="543.87" rx="1.49" ry="4.16" transform="translate(-290.67 730.89) rotate(-85.25)"/><ellipse class="cls-43" cx="258.85" cy="545.91" rx="1.49" ry="4.16" transform="translate(-269.2 758.3) rotate(-85.25)"/><ellipse class="cls-3" cx="207.62" cy="541.83" rx="0.94" ry="2.64" transform="translate(-312.12 703.5) rotate(-85.25)"/><ellipse class="cls-3" cx="233.22" cy="543.87" rx="0.94" ry="2.64" transform="translate(-290.67 730.89) rotate(-85.25)"/><ellipse class="cls-3" cx="258.85" cy="545.91" rx="0.94" ry="2.64" transform="translate(-269.2 758.3) rotate(-85.25)"/><path class="cls-46" d="M401.07,585.93l-.74,12.73-46.83,1.62c-8.54-.58-15.92-.44-26.88-6.42-3.18-1.72-12.39-6.75-11.88-11.74.43-4.26,7.77-6.47,10.07-7.15,16.94-5.08,25.69,5.49,45.16,8.15a58.34,58.34,0,0,0,8.14.55l.47.21,2.62,1.18Z" transform="translate(37.41 -0.4)"/><ellipse class="cls-47" cx="305.97" cy="583.41" rx="5.39" ry="1.21" transform="translate(-256.35 855.61) rotate(-86.77)"/><ellipse class="cls-47" cx="310.18" cy="583.74" rx="5.39" ry="1.21" transform="translate(-252.71 860.13) rotate(-86.77)"/><ellipse class="cls-47" cx="323.47" cy="584.8" rx="5.39" ry="0.92" transform="translate(-241.37 874.1) rotate(-86.74)"/><ellipse class="cls-47" cx="326.68" cy="585.06" rx="5.39" ry="0.92" transform="translate(-238.6 877.55) rotate(-86.74)"/><ellipse class="cls-47" cx="338.16" cy="585.97" rx="5.39" ry="0.7" transform="translate(-228.78 889.69) rotate(-86.72)"/><ellipse class="cls-47" cx="340.6" cy="586.17" rx="5.39" ry="0.7" transform="translate(-226.66 892.32) rotate(-86.72)"/><ellipse class="cls-47" cx="350.29" cy="586.94" rx="5.39" ry="0.57" transform="translate(-218.35 902.64) rotate(-86.72)"/><ellipse class="cls-47" cx="352.29" cy="587.1" rx="5.39" ry="0.57" transform="translate(-216.62 904.79) rotate(-86.72)"/><rect class="cls-48" x="157.29" y="599.56" width="285.5" height="4.42" rx="2.21"/><path class="cls-49" d="M396.88,604,101.63,715.52a435.2,435.2,0,0,1-58.1-89.64q-4.47-9.21-8.52-18.66c-.24-.56-.48-1.12-.71-1.68L37.45,604Z" transform="translate(37.41 -0.4)"/><path class="cls-50" d="M373.21,477.13q-16,12.87-27,21A116.51,116.51,0,0,1,324.39,511a52.71,52.71,0,0,1-9.6,3.24,21.53,21.53,0,0,1-9,.27,17.67,17.67,0,0,1-8-3.92q-3.75-3.09-6.64-9.62-5.28-11.91-7-32.21a393.28,393.28,0,0,1-1-44q.69-23.73,2.69-48.71c1.33-16.66,2-30.8,3.36-45a145.51,145.51,0,0,0,13.63-12.43q4.81-4.85,8.5-6.48c.76-.33,1.31-.24,1.66.29a48.48,48.48,0,0,1,2.28,4.76q14.07,31.78,20.24,56t5.79,44.11a117.5,117.5,0,0,1-6.38,36.94,206.5,206.5,0,0,1-16,34.41,26.54,26.54,0,0,0,10.31.69,85.29,85.29,0,0,0,10.86-1.93,68.77,68.77,0,0,0,9.52-3q4.32-1.74,6.31-2.62c1.51-.67,3.79-1.79,6.82-3.37s6-3.21,8.85-4.93ZM308.43,347q-1.35,13.83-1.68,28.41t-.3,27.28q0,12.72.43,22t.52,12.67q.27,12.09,1,19.77A120.48,120.48,0,0,0,310,469.66a59.83,59.83,0,0,0,2.18,8.37c.81,2.35,1.81,4.86,3,7.5.9-1.53,2-3.42,3.25-5.68a49,49,0,0,0,3.7-9.27A85.45,85.45,0,0,0,325,455.91a155.25,155.25,0,0,0,.67-21.85,266.51,266.51,0,0,0-2.72-29.52q-2.08-13.5-4.7-24.39T313,361.08Q310.37,352.91,308.43,347Z" transform="translate(37.41 -0.4)"/><path class="cls-50" d="M352.57,523.92a51.2,51.2,0,0,0,15.75,2.48c.75,0,1.65,0,2.7-.07a11.89,11.89,0,0,0,3.17-.63,6.15,6.15,0,0,0,2.73-1.88A5.77,5.77,0,0,0,378.1,520q.06-4.05-2.77-11.42t-6.09-15.08q-3.28-7.71-6.12-14.06t-2.81-8.61c0-.75.32-1.12.92-1.12a29,29,0,0,1,3.93,1.19c2.32.78,4.82,1.57,7.52,2.36q4.71,1.65,10.77,3.53l13.89,37.62a49.22,49.22,0,0,1,2.15,7.36,34.41,34.41,0,0,1,.8,7.57,10,10,0,0,1-10.06,9.77,43.78,43.78,0,0,1-9.68-1.38,90.35,90.35,0,0,1-10.66-3.31q-5.26-2-9.86-4t-7.5-3.37Zm18.29-73.57a10.6,10.6,0,0,1-7.82,3.16,11,11,0,0,1-7.84-3.38,11,11,0,0,1,.11-15.78,10.85,10.85,0,0,1,8.05-3.15,11.15,11.15,0,0,1,10.89,11.2A10.89,10.89,0,0,1,370.86,450.35Z" transform="translate(37.41 -0.4)"/><path class="cls-51" d="M368.68,481.44q-16,12.87-27,21a116.83,116.83,0,0,1-21.79,12.87,52.71,52.71,0,0,1-9.6,3.24,21.58,21.58,0,0,1-9.05.27,17.77,17.77,0,0,1-8-3.92q-3.75-3.07-6.64-9.61-5.28-11.92-7-32.22a393.4,393.4,0,0,1-1-44q.69-23.73,2.69-48.71t4.1-46.29a135.67,135.67,0,0,0,12.89-11.14q4.8-4.85,8.5-6.48c.75-.33,1.3-.24,1.65.29a46.08,46.08,0,0,1,2.28,4.76q14.08,31.79,20.24,56t5.79,44.11a117.21,117.21,0,0,1-6.37,36.94,206.57,206.57,0,0,1-16,34.41,26.6,26.6,0,0,0,10.32.69,85.29,85.29,0,0,0,10.86-1.93,69.2,69.2,0,0,0,9.52-3q4.32-1.74,6.3-2.62,2.26-1,6.83-3.36t8.84-4.94ZM303.89,351.28q-1.33,13.83-1.67,28.41t-.3,27.28q0,12.72.43,22t.52,12.67q.27,12.09.95,19.77A120.48,120.48,0,0,0,305.46,474a61.25,61.25,0,0,0,2.18,8.37q1.23,3.54,3,7.51c.91-1.54,2-3.43,3.26-5.69a48.76,48.76,0,0,0,3.69-9.27,85.45,85.45,0,0,0,2.84-14.67,156.59,156.59,0,0,0,.68-21.85,266,266,0,0,0-2.73-29.51q-2.07-13.51-4.69-24.4t-5.23-19.07Q305.84,357.22,303.89,351.28Z" transform="translate(37.41 -0.4)"/><path class="cls-51" d="M348,528.23a51.09,51.09,0,0,0,15.74,2.48c.75,0,1.66,0,2.71-.07a11.82,11.82,0,0,0,3.16-.63,6.15,6.15,0,0,0,2.73-1.88,5.83,5.83,0,0,0,1.19-3.82q0-4-2.77-11.42t-6.1-15.08q-3.27-7.71-6.11-14.06t-2.81-8.61c0-.75.32-1.12.92-1.11a28.56,28.56,0,0,1,3.93,1.18q3.48,1.17,7.51,2.36,4.71,1.65,10.78,3.54l13.89,37.62a49.93,49.93,0,0,1,2.15,7.35,34.38,34.38,0,0,1,.79,7.57,10,10,0,0,1-10.06,9.77,44.23,44.23,0,0,1-9.67-1.37,93,93,0,0,1-10.66-3.31q-5.26-2-9.87-4t-7.5-3.37Zm18.29-73.57a10.63,10.63,0,0,1-7.82,3.16,11,11,0,0,1-7.85-3.38,11,11,0,0,1,.12-15.78,10.84,10.84,0,0,1,8-3.15,11.17,11.17,0,0,1,10.89,11.2A10.85,10.85,0,0,1,366.33,454.66Z" transform="translate(37.41 -0.4)"/><path class="cls-50" d="M390.07,50.22c-19.94-.76-49.06,11.69-69.2,19.18C247.3,96.8,176.67,176,140.52,282.4,120,342.79,115.94,390.64,121.87,443.58c20.32-36.87,40.61-49.95,69.17-47.94a47.36,47.36,0,0,1,7.16,1.06c22.81,5.22,45.38,24.5,56,55.57,5,14.63,5.91,40.42,7.65,58.07q.26-22.24.95-44.16C267.34,326.35,294.94,180.51,390.07,50.22ZM249.91,296.84h-.74c.92-21.4-8.33-39.15-21.13-40.05-8.8-.62-27.91,9.14-32.88,20.83-1.84-16.32.13-34.88,6.46-53.49,14.19-41.8,68-90.22,96.6-89.14C264.07,181.77,252.77,241.35,249.91,296.84Z" transform="translate(37.41 -0.4)"/><path class="cls-3" d="M381.9,50.58c-19.94-.76-40.3,2.87-60.43,10.36-73.58,27.41-144.2,106.58-180.36,213-20.52,60.38-26.89,120.58-21,173.52,16.14-37.92,42.92-62.3,71.48-60.29a47.36,47.36,0,0,1,7.16,1.06c22.81,5.23,41.47,27.31,52.07,58.38a184.7,184.7,0,0,1,9.19,49q.27-22.23,1-44.16C265.56,311.65,286.77,180.87,381.9,50.58ZM250.5,288.38c-.24,0-.49,0-.73,0,.91-21.41-8.34-39.16-21.13-40.06-8.81-.62-27.92,9.14-32.89,20.83-1.83-16.32.14-34.88,6.46-53.49,14.2-41.8,68-90.22,96.6-89.14C264.66,173.31,253.36,232.89,250.5,288.38Z" transform="translate(37.41 -0.4)"/><path class="cls-52" d="M250.86,446.62c-3.49-1.44-6.19-18.24-9.48-20-13.43-30.79-40.76-41-55.63-39.25-23.07-50-24-119.78,2.52-188.28C213.94,132.62,262.61,87.52,311.58,65c20.13-7.5,50.38-15.13,70.32-14.37C286.77,180.87,255.42,306.79,250.86,446.62Z" transform="translate(37.41 -0.4)"/><image width="1833" height="1339" transform="matrix(0.21, 0.07, -0.07, 0.21, 414.8, 63.71)" xlink:href="../../%D0%9B%D0%9E%D0%93%D0%9E%D0%A2%D0%98%D0%9F/Tasin.png"/></g></g></g></svg>