<svg width="120" height="120" viewBox="0 0 120 120" fill="none" xmlns="http://www.w3.org/2000/svg">
<circle cx="60" cy="60" r="60" fill="#F5A900"/>
<path d="M48.5 48L26 37V85.5L48.5 96M48.5 48C48.5 48 62.8227 41.2958 72 37M48.5 48V56M48.5 96L70.5 85.5M48.5 96V63.5M70.5 85.5L93 97V48M70.5 85.5V73M70.5 64.5V44.5M35 71L41.5 77.5M35 77.5L41.5 71M38.5 67C38.5 66 38.8 63.7 40 62.5M43 60.5C43.8333 60.1667 46.1 59.5 48.5 59.5M51 60.5L56 62.5M59 64L63.5 66.5M66.5 68C67 68.3333 68.7 69 71.5 69M75 68.5L79.5 67M81.5 64.5L82.5 61.5" stroke="white" stroke-width="3"/>
<path d="M83 51C83 51 94 43.6364 94 35.0455C94 32.116 92.8411 29.3066 90.7782 27.2351C88.7153 25.1637 85.9174 24 83 24C80.0826 24 77.2847 25.1637 75.2218 27.2351C73.1589 29.3066 72 32.116 72 35.0455C72 40.312 76.134 45.1173 79.3333 48.0477M83 38.7273C85.025 38.7273 86.6667 37.0789 86.6667 35.0455C86.6667 33.012 85.025 31.3636 83 31.3636C80.975 31.3636 79.3333 33.012 79.3333 35.0455C79.3333 35.7982 79.5583 36.4982 79.9444 37.0814" stroke="white" stroke-width="3" stroke-linecap="round" stroke-linejoin="round"/>
</svg>
