<?xml version="1.0"?>
<svg xmlns="http://www.w3.org/2000/svg" xmlns:xlink="http://www.w3.org/1999/xlink" xmlns:svgjs="http://svgjs.com/svgjs" version="1.1" width="512" height="512" x="0" y="0" viewBox="0 0 496 496" style="enable-background:new 0 0 512 512" xml:space="preserve" class=""><circle r="248" cx="248" cy="248" fill="#f5a900" shape="circle"/><g transform="matrix(0.6,0,0,0.6,99.19999999999999,99.19999999999999)"><path xmlns="http://www.w3.org/2000/svg" d="m456 0h-16c-4.425781 0-8 3.585938-8 8v56h-392c-22.054688 0-40 17.945312-40 40v352c0 22.054688 17.945312 40 40 40h16c4.425781 0 8-3.585938 8-8v-56h392c22.054688 0 40-17.945312 40-40v-352c0-22.054688-17.945312-40-40-40zm-408 480h-8c-13.230469 0-24-10.769531-24-24v-320.015625c6.6875 5.023437 15 8.015625 24 8.015625h8zm-8-352c-13.230469 0-24-10.769531-24-24s10.769531-24 24-24h200v12.6875l-13.65625 13.65625c-1.503906 1.496094-2.34375 3.535156-2.34375 5.65625v20.6875l-11.3125 11.3125h-17.375l-13.65625-13.65625c-1.496094-1.503906-3.527344-2.34375-5.65625-2.34375h-24c-2.128906 0-4.160156.839844-5.65625 2.34375l-24 24c-3.128906 3.128906-3.128906 8.183594 0 11.3125l21.65625 21.65625v17.375l-19.3125 19.3125h-17.375l-21.65625-21.65625c-1.496094-1.503906-3.527344-2.34375-5.65625-2.34375h-16v-64c0-4.414062-3.574219-8-8-8zm58.34375 197.65625 13.65625 13.65625v17.375l-19.3125 19.3125h-28.6875v-96h20.6875l11.3125 11.3125v28.6875c0 2.121094.839844 4.160156 2.34375 5.65625zm357.65625 90.34375h-392v-24h32c2.128906 0 4.160156-.839844 5.65625-2.34375l24-24c1.503906-1.496094 2.34375-3.535156 2.34375-5.65625v-24c0-2.121094-.839844-4.160156-2.34375-5.65625l-13.65625-13.65625v-28.6875c0-2.121094-.839844-4.160156-2.34375-5.65625l-16-16c-1.496094-1.503906-3.527344-2.34375-5.65625-2.34375h-24v-48h12.6875l21.65625 21.65625c1.496094 1.503906 3.527344 2.34375 5.65625 2.34375h24c2.128906 0 4.160156-.839844 5.65625-2.34375l24-24c1.503906-1.496094 2.34375-3.535156 2.34375-5.65625v-24c0-2.121094-.839844-4.160156-2.34375-5.65625l-18.34375-18.34375 16-16h17.375l13.65625 13.65625c1.496094 1.503906 3.527344 2.34375 5.65625 2.34375h24c2.128906 0 4.160156-.839844 5.65625-2.34375l16-16c1.503906-1.496094 2.34375-3.535156 2.34375-5.65625v-20.6875l13.65625-13.65625c1.503906-1.496094 2.34375-3.535156 2.34375-5.65625v-16h176v280c0 4.414062 3.574219 8 8 8h16c13.230469 0 24 10.769531 24 24s-10.769531 24-24 24zm24-55.984375c-6.6875-5.023437-15-8.015625-24-8.015625h-8v-336h8c13.230469 0 24 10.769531 24 24zm0 0" fill="#ffffff" data-original="#000000" style="" class=""/><path xmlns="http://www.w3.org/2000/svg" d="m184 272c-26.472656 0-48 21.527344-48 48 0 12.144531 3.726562 23.785156 10.792969 33.664062l30.703125 42.984376c1.496094 2.105468 3.917968 3.351562 6.503906 3.351562s5.007812-1.246094 6.503906-3.351562l30.703125-42.984376c7.066407-9.878906 10.792969-21.519531 10.792969-33.664062 0-26.472656-21.527344-48-48-48zm24.191406 72.367188-24.191406 33.871093-24.191406-33.863281c-5.105469-7.160156-7.808594-15.582031-7.808594-24.375 0-17.648438 14.351562-32 32-32s32 14.351562 32 32c0 8.792969-2.703125 17.214844-7.808594 24.367188zm0 0" fill="#ffffff" data-original="#000000" style="" class=""/><path xmlns="http://www.w3.org/2000/svg" d="m176 304h16v16h-16zm0 0" fill="#ffffff" data-original="#000000" style="" class=""/><path xmlns="http://www.w3.org/2000/svg" d="m248 384h16v16h-16zm0 0" fill="#ffffff" data-original="#000000" style="" class=""/><path xmlns="http://www.w3.org/2000/svg" d="m296.929688 248.632812 2.796874 15.75c1.402344-.246093 2.824219-.382812 4.273438-.382812h10.289062v-16h-10.304687c-2.367187 0-4.746094.214844-7.054687.632812zm0 0" fill="#ffffff" data-original="#000000" style="" class=""/><path xmlns="http://www.w3.org/2000/svg" d="m330.289062 248h16v16h-16zm0 0" fill="#ffffff" data-original="#000000" style="" class=""/><path xmlns="http://www.w3.org/2000/svg" d="m356.03125 341.625 13.722656-8.242188c-3.347656-5.558593-7.96875-10.40625-13.378906-14.015624l-8.871094 13.3125c3.441406 2.304687 6.390625 5.390624 8.527344 8.945312zm0 0" fill="#ffffff" data-original="#000000" style="" class=""/><path xmlns="http://www.w3.org/2000/svg" d="m216 384h16v16h-16zm0 0" fill="#ffffff" data-original="#000000" style="" class=""/><path xmlns="http://www.w3.org/2000/svg" d="m321.144531 312v16h10.855469c1.351562 0 2.6875.097656 3.992188.289062l2.246093-15.839843c-2.039062-.296875-4.117187-.449219-6.238281-.449219zm0 0" fill="#ffffff" data-original="#000000" style="" class=""/><path xmlns="http://www.w3.org/2000/svg" d="m359.871094 353.351562c.089844.871094.128906 1.761719.128906 2.664063.007812 3.28125-.550781 6.496094-1.671875 9.570313l15.03125 5.46875c1.769531-4.832032 2.648437-9.902344 2.640625-15.046876 0-1.414062-.070312-2.816406-.199219-4.191406zm0 0" fill="#ffffff" data-original="#000000" style="" class=""/><path xmlns="http://www.w3.org/2000/svg" d="m341.167969 382.472656 5.230469 15.121094c6.128906-2.121094 11.824218-5.664062 16.464843-10.234375l-11.214843-11.398437c-2.96875 2.902343-6.59375 5.160156-10.480469 6.511718zm0 0" fill="#ffffff" data-original="#000000" style="" class=""/><path xmlns="http://www.w3.org/2000/svg" d="m376 248h-13.710938v16h13.710938c.960938 0 1.910156-.03125 2.863281-.105469l-1.160156-15.957031c-.550781.046875-1.136719.0625-1.703125.0625zm0 0" fill="#ffffff" data-original="#000000" style="" class=""/><path xmlns="http://www.w3.org/2000/svg" d="m400 208h16v16h-16zm0 0" fill="#ffffff" data-original="#000000" style="" class=""/><path xmlns="http://www.w3.org/2000/svg" d="m312 384h16v16h-16zm0 0" fill="#ffffff" data-original="#000000" style="" class=""/><path xmlns="http://www.w3.org/2000/svg" d="m388.96875 244.191406 8.671875 13.457032c5.597656-3.617188 10.261719-8.617188 13.472656-14.472657l-14.035156-7.6875c-1.925781 3.519531-4.734375 6.535157-8.109375 8.703125zm0 0" fill="#ffffff" data-original="#000000" style="" class=""/><path xmlns="http://www.w3.org/2000/svg" d="m280 384h16v16h-16zm0 0" fill="#ffffff" data-original="#000000" style="" class=""/><path xmlns="http://www.w3.org/2000/svg" d="m280.136719 290.558594-15.90625 1.707031c.714843 6.636719 3.105469 13.054687 6.914062 18.542969l13.144531-9.128906c-2.296874-3.289063-3.730468-7.136719-4.152343-11.121094zm0 0" fill="#ffffff" data-original="#000000" style="" class=""/><path xmlns="http://www.w3.org/2000/svg" d="m293.257812 309.472656-7.167968 14.304688c5.597656 2.796875 11.621094 4.222656 17.910156 4.222656h1.144531v-16h-1.144531c-3.777344 0-7.390625-.847656-10.742188-2.527344zm0 0" fill="#ffffff" data-original="#000000" style="" class=""/><path xmlns="http://www.w3.org/2000/svg" d="m267.039062 272.679688 14.785157 6.144531c1.527343-3.695313 4-6.992188 7.128906-9.503907l-10.03125-12.464843c-5.21875 4.191406-9.320313 9.664062-11.882813 15.824219zm0 0" fill="#ffffff" data-original="#000000" style="" class=""/><path xmlns="http://www.w3.org/2000/svg" d="m336 174.585938v57.414062h16v-57.414062c13.769531-4.472657 24-20 24-38.585938 0-22.054688-14.351562-40-32-40s-32 17.945312-32 40c0 18.585938 10.230469 34.105469 24 38.585938zm8-62.585938c8.671875 0 16 10.992188 16 24 0 8.65625-3.28125 16.328125-8 20.558594v-12.558594h-16v12.558594c-4.726562-4.222656-8-11.902344-8-20.558594 0-13.007812 7.328125-24 16-24zm0 0" fill="#ffffff" data-original="#000000" style="" class=""/><path xmlns="http://www.w3.org/2000/svg" d="m280 232v-33.136719c13.769531-3.574219 24-16 24-30.863281 0-17.648438-14.351562-32-32-32s-32 14.351562-32 32c0 14.863281 10.230469 27.289062 24 30.863281v33.136719zm-24-64c0-8.824219 7.175781-16 16-16s16 7.175781 16 16c0 5.894531-3.238281 11-8 13.777344v-13.777344h-16v13.777344c-4.761719-2.777344-8-7.882813-8-13.777344zm0 0" fill="#ffffff" data-original="#000000" style="" class=""/></g></svg>
