<svg width="30" height="30" viewBox="0 0 30 30" fill="none" xmlns="http://www.w3.org/2000/svg">
<path d="M16.4563 2.3931C16.5763 2.40187 16.6875 2.41065 16.7811 2.42381C23.3679 3.43752 26.3973 6.55761 27.2355 13.1957C27.2501 13.3083 27.2531 13.4458 27.2545 13.5906C27.2633 14.1099 27.2809 15.1894 28.4394 15.2114H28.4745C28.8387 15.2114 29.1269 15.1017 29.3346 14.8852C29.6944 14.5092 29.671 13.949 29.6491 13.4985C29.6447 13.3873 29.6403 13.2834 29.6403 13.1913C29.7251 6.40402 23.8477 0.247209 17.0663 0.0190161C17.0371 0.0190161 17.0107 0.0190161 16.9844 0.0234044C16.9577 0.0267713 16.9308 0.0282378 16.9039 0.0277928C16.8352 0.0277928 16.7533 0.0219416 16.6641 0.0160906C16.5587 0.00877669 16.4373 0 16.313 0C15.2335 0 15.0287 0.767956 15.0023 1.2258C14.9424 2.28339 15.9648 2.35799 16.4563 2.3931ZM26.9181 21.7748C26.7768 21.6674 26.6368 21.5582 26.4983 21.4472C25.7786 20.8679 25.0136 20.3355 24.2749 19.8191L23.8141 19.4973C22.8662 18.8317 22.0149 18.5085 21.2103 18.5085C20.125 18.5085 19.18 19.1082 18.3989 20.2887C18.0537 20.8123 17.6339 21.0668 17.1175 21.0668C16.7589 21.0543 16.4069 20.9661 16.0848 20.8079C13.0276 19.4212 10.8422 17.2944 9.59301 14.4873C8.98888 13.1298 9.18489 12.2434 10.2469 11.5208C10.851 11.1112 11.9729 10.3491 11.8954 8.8878C11.8047 7.23048 8.14633 2.24097 6.60456 1.67487C5.94547 1.43445 5.223 1.43238 4.56253 1.66902C2.79112 2.26437 1.52143 3.31172 0.885124 4.69404C0.27076 6.03101 0.300015 7.60056 0.964113 9.23302C2.88766 13.9534 5.59086 18.0696 9.00058 21.4662C12.3372 24.7911 16.4388 27.5133 21.1899 29.5597C21.6185 29.744 22.0675 29.8449 22.3967 29.9181C22.5078 29.9429 22.6044 29.9649 22.6746 29.9839C22.7132 29.9943 22.753 29.9997 22.7931 30H22.8311C25.0662 30 27.7504 27.958 28.5739 25.6307C29.2966 23.5916 27.9771 22.5837 26.9181 21.7748ZM17.4452 7.78634C17.0634 7.79511 16.2662 7.81559 15.9868 8.62597C15.8551 9.00629 15.8712 9.33395 16.0336 9.60456C16.2706 9.99951 16.7255 10.1224 17.138 10.1897C18.6373 10.4296 19.4082 11.2575 19.5618 12.7978C19.6335 13.5146 20.1177 14.0163 20.7364 14.0163C20.7834 14.0162 20.8302 14.0133 20.8768 14.0075C21.6228 13.9197 21.9842 13.3712 21.952 12.378C21.9637 11.3423 21.4224 10.1663 20.4994 9.23009C19.575 8.29099 18.4603 7.76147 17.4452 7.78634Z" fill="black"/>
</svg>
